<svg width="224" height="224" viewBox="0 0 224 224" fill="none" xmlns="http://www.w3.org/2000/svg">
<circle cx="112" cy="112" r="110.5" stroke="#A7A7A7" stroke-width="3"/>
<path d="M127.645 139.042L115.826 127.32C110.393 121.934 107.677 119.24 104.549 118.23C101.799 117.34 98.8378 117.34 96.0864 118.23C92.9593 119.24 90.2429 121.934 84.8103 127.32L57.2886 155.04M127.645 139.042L129.994 136.711C135.541 131.211 138.314 128.461 141.497 127.457C144.295 126.574 147.302 126.609 150.08 127.556C153.237 128.633 155.947 131.446 161.365 137.072L167.118 142.912M127.645 139.042L154.867 166.744M57.2886 155.04C57.4999 156.832 57.866 158.239 58.5003 159.484C59.8199 162.074 61.9257 164.18 64.5157 165.5C67.4601 167 71.3145 167 79.0235 167H145.094C149.37 167 152.46 167 154.867 166.744M57.2886 155.04C57 152.592 57 149.427 57 144.976V78.9059C57 71.197 57 67.3424 58.5003 64.398C59.8199 61.808 61.9257 59.7023 64.5157 58.3826C67.4601 56.8824 71.3145 56.8824 79.0235 56.8824H105.176M154.867 166.744C156.799 166.538 158.291 166.168 159.602 165.5C162.192 164.18 164.298 162.074 165.617 159.484C167.118 156.54 167.118 152.685 167.118 144.976V118.824M153.353 91.2941V70.6471M153.353 70.6471V50M153.353 70.6471H174M153.353 70.6471H132.706" stroke="#A7A7A7" stroke-width="6.8" stroke-linecap="round" stroke-linejoin="round"/>
</svg>
