<svg width="1536" height="730" viewBox="0 0 1536 730" fill="none" xmlns="http://www.w3.org/2000/svg">
<g clip-path="url(#clip0_170_122)">
<rect width="1536" height="730" fill="black"/>
<path d="M-144.775 129.64L108.363 -123.499L205.944 -25.918L-47.1947 227.22L-144.775 129.64Z" fill="black"/>
<path d="M-124.57 303.434L309.178 -130.314L406.759 -32.7332L-26.9895 401.015L-124.57 303.434Z" fill="#050505"/>
<path d="M-128.041 501.905L492.006 -118.142L589.586 -20.5608L-30.4603 599.486L-128.041 501.905Z" fill="#060606"/>
<path d="M-85.0818 652.946L689.977 -122.112L787.557 -24.5317L12.4989 750.527L-85.0818 652.946Z" fill="#080808"/>
<path d="M28.5839 734.28L867.116 -104.251L964.696 -6.67067L126.165 831.861L28.5839 734.28Z" fill="#0A0A0A"/>
<path d="M177 779.864L1057.69 -100.831L1155.28 -3.24979L274.581 877.445L177 779.864Z" fill="#0C0C0C"/>
<path d="M259 892.864L1263.44 -111.576L1361.02 -13.9949L356.581 990.445L259 892.864Z" fill="#0D0D0D"/>
<path d="M579.81 766.054L1446.64 -100.771L1544.22 -3.19013L677.391 863.634L579.81 766.054Z" fill="#0E0E0E"/>
<path d="M799 741.925L1571.86 -30.933L1669.44 66.6478L896.581 839.505L799 741.925Z" fill="#0F0F0F"/>
<path d="M947.416 787.509L1587.8 147.128L1685.38 244.709L1045 885.089L947.416 787.509Z" fill="#101010"/>
<path d="M1153.42 776.503L1580.06 349.865L1677.64 447.446L1251 874.084L1153.42 776.503Z" fill="#111111"/>
<path d="M1368.46 755.467L1600.26 523.66L1697.85 621.241L1466.04 853.047L1368.46 755.467Z" fill="#121212"/>
</g>
<defs>
<clipPath id="clip0_170_122">
<rect width="1536" height="730" fill="white"/>
</clipPath>
</defs>
</svg>
