<svg width="1128" height="310" viewBox="0 0 1128 310" fill="none" xmlns="http://www.w3.org/2000/svg">
<path d="M814.515 23.9377C814.677 23.9426 814.838 23.9469 815 23.9506V24.9508V285.551C797.312 285.465 779.866 292.322 771.442 308.234L771.301 308.5H49.5248L49.5006 308.025C48.0152 278.811 26.7502 261.491 0.980783 260.5L0.5 260.481V247.581L0.912483 247.508C6.49878 246.515 9.92 244.944 11.7708 243.241C12.6907 242.395 13.2133 241.525 13.4366 240.683C13.6593 239.842 13.5928 238.995 13.2825 238.177C12.6565 236.527 11.0292 234.983 8.80826 233.971C6.59782 232.963 3.85592 232.511 1.08567 232.993L0.5 233.094V218.455L1.0427 218.502C5.33676 218.87 8.49836 218.037 10.5692 216.676C12.6377 215.317 13.625 213.432 13.625 211.625C13.625 209.821 12.6421 208.006 10.5865 206.772C8.52463 205.535 5.36794 204.881 1.07071 205.495L0.5 205.577V192.566L0.929289 192.505C5.24723 191.888 8.34213 190.599 10.3223 189.03C12.2975 187.465 13.1473 185.64 13.0631 183.899C12.9786 182.153 11.9477 180.374 9.91989 178.922C7.89194 177.47 4.88913 176.367 0.95333 175.998L0.5 175.955V165.07L0.925097 165.006C5.0003 164.388 8.07954 163.22 10.1411 161.821C12.21 160.416 13.196 158.824 13.2503 157.356C13.304 155.906 12.453 154.396 10.4367 153.126C8.41837 151.855 5.2861 150.869 0.957299 150.498L0.5 150.459V135.36L1.12127 135.515C4.01336 136.238 6.77621 135.904 8.95815 134.963C11.1506 134.017 12.7107 132.48 13.2773 130.837C13.8291 129.237 13.4719 127.444 11.6382 125.828C9.77583 124.188 6.389 122.739 0.932443 121.995L0.5 121.936V110.041L0.957299 110.002C5.28617 109.631 8.45035 108.644 10.5083 107.357C12.5635 106.072 13.4647 104.527 13.4376 103.009C13.4102 101.474 12.432 99.7898 10.3363 98.2464C8.24726 96.7078 5.10227 95.3551 0.899174 94.4897L0.5 94.4075V81.4263L1.06832 81.5047C8.12737 82.4783 12.4218 78.7086 12.8786 74.9398C13.107 73.0561 12.4016 71.0985 10.5303 69.5927C8.64746 68.0776 5.55362 67 1 67H0.5V49.5428L0.955402 49.502C17.6049 48.011 29.4792 42.0543 37.3172 33.4141C45.1588 24.7697 49.004 13.3909 49.5004 0.980016L49.5196 0.5H772.329L772.459 0.802085C778.601 15.0508 795.99 23.3782 814.515 23.9377Z" fill="#D20E26"/>
<path d="M815 23.9506C814.838 23.9469 814.677 23.9426 814.515 23.9377C795.99 23.3782 778.601 15.0508 772.459 0.802085L772.329 0.5H49.5196L49.5004 0.980016C49.004 13.3909 45.1588 24.7697 37.3172 33.4141C29.4792 42.0543 17.6049 48.011 0.955402 49.502L0.5 49.5428V67H1C5.55362 67 8.64746 68.0776 10.5303 69.5927C12.4016 71.0985 13.107 73.0561 12.8786 74.9398C12.4218 78.7086 8.12737 82.4783 1.06832 81.5047L0.5 81.4263V94.4075L0.899174 94.4897C5.10227 95.3551 8.24726 96.7078 10.3363 98.2464C12.432 99.7898 13.4102 101.474 13.4376 103.009C13.4647 104.527 12.5635 106.072 10.5083 107.357C8.45035 108.644 5.28617 109.631 0.957299 110.002L0.5 110.041V121.936L0.932443 121.995C6.389 122.739 9.77583 124.188 11.6382 125.828C13.4719 127.444 13.8291 129.237 13.2773 130.837C12.7107 132.48 11.1506 134.017 8.95815 134.963C6.77621 135.904 4.01336 136.238 1.12127 135.515L0.5 135.36V150.459L0.957299 150.498C5.2861 150.869 8.41837 151.855 10.4367 153.126C12.453 154.396 13.304 155.906 13.2503 157.356C13.196 158.824 12.21 160.416 10.1411 161.821C8.07954 163.22 5.0003 164.388 0.925097 165.006L0.5 165.07V175.955L0.95333 175.998C4.88913 176.367 7.89194 177.47 9.91989 178.922C11.9477 180.374 12.9786 182.153 13.0631 183.899C13.1473 185.64 12.2975 187.465 10.3223 189.03C8.34213 190.599 5.24723 191.888 0.929289 192.505L0.5 192.566V205.577L1.07071 205.495C5.36794 204.881 8.52463 205.535 10.5865 206.772C12.6421 208.006 13.625 209.821 13.625 211.625C13.625 213.432 12.6377 215.317 10.5692 216.676C8.49836 218.037 5.33676 218.87 1.0427 218.502L0.5 218.455V233.094L1.08567 232.993C3.85592 232.511 6.59782 232.963 8.80826 233.971C11.0292 234.983 12.6565 236.527 13.2825 238.177C13.5928 238.995 13.6593 239.842 13.4366 240.683C13.2133 241.525 12.6907 242.395 11.7708 243.241C9.92 244.944 6.49878 246.515 0.912483 247.508L0.5 247.581V260.481L0.980783 260.5C26.7502 261.491 48.0152 278.811 49.5006 308.025L49.5248 308.5H771.301L771.442 308.234C779.866 292.322 797.312 285.465 815 285.551V23.9506ZM815 23.9506V24.9508M770.7 307.5H50.4735C48.7639 278.183 27.3756 260.72 1.5 259.521V248.417C6.92862 247.406 10.4428 245.822 12.4479 243.977C13.4812 243.027 14.1226 241.998 14.4033 240.939C14.6844 239.877 14.5947 238.817 14.2175 237.823C13.4685 235.848 11.5958 234.142 9.22299 233.061C6.99599 232.046 4.27802 231.555 1.5 231.918V219.539C5.69025 219.809 8.9086 218.964 11.1183 217.512C13.4248 215.996 14.625 213.818 14.625 211.625C14.625 209.429 13.4204 207.307 11.101 205.915C8.8877 204.587 5.67403 203.927 1.5 204.43V193.431C5.7152 192.774 8.85322 191.47 10.9434 189.814C13.1088 188.098 14.1652 185.985 14.0619 183.851C13.9589 181.722 12.7085 179.689 10.502 178.109C8.37827 176.589 5.34825 175.47 1.5 175.048V165.927C5.4697 165.279 8.55889 164.103 10.7027 162.648C12.915 161.146 14.179 159.301 14.2497 157.394C14.321 155.469 13.172 153.667 10.9695 152.28C8.84567 150.943 5.6925 149.952 1.5 149.544V136.626C4.38315 137.212 7.13286 136.84 9.35435 135.881C11.7244 134.858 13.5393 133.145 14.2227 131.163C14.9209 129.138 14.4031 126.931 12.2993 125.078C10.2786 123.298 6.79958 121.839 1.5 121.066V110.956C5.69451 110.548 8.87751 109.557 11.0386 108.205C13.2802 106.803 14.4728 104.973 14.4374 102.991C14.4023 101.026 13.1617 99.0852 10.9293 97.4411C8.76008 95.8436 5.60211 94.4823 1.5 93.5945V82.5646C8.62425 83.3169 13.3421 79.4263 13.8714 75.0602C14.143 72.8189 13.2859 70.5265 11.1572 68.8136" stroke="black"/>
<path d="M817.852 286.124C816.901 286.08 815.95 286.055 815 286.051V285.051V25.4508V24.4506C833.359 24.8701 852.533 17.6468 862.573 1.23902L862.72 1H1077.98L1078 1.47461C1079.48 30.689 1100.75 48.0092 1126.52 49.0004L1127 49.0189V61.9189L1126.59 61.9923C1121 62.9854 1117.58 64.5558 1115.73 66.2586C1114.81 67.1048 1114.29 67.9746 1114.06 68.8175C1113.84 69.6584 1113.91 70.5047 1114.22 71.3227C1114.84 72.9732 1116.47 74.5172 1118.69 75.5294C1120.9 76.5369 1123.64 76.9892 1126.41 76.5074L1127 76.4055V91.0447L1126.46 90.9982C1122.16 90.6301 1119 91.4633 1116.93 92.8241C1114.86 94.1835 1113.88 96.0678 1113.88 97.875C1113.88 99.6786 1114.86 101.494 1116.91 102.728C1118.98 103.965 1122.13 104.619 1126.43 104.005L1127 103.923V116.934L1126.57 116.995C1122.25 117.612 1119.16 118.901 1117.18 120.47C1115.2 122.035 1114.35 123.86 1114.44 125.601C1114.52 127.347 1115.55 129.126 1117.58 130.578C1119.61 132.03 1122.61 133.133 1126.55 133.502L1127 133.545V144.43L1126.57 144.494C1122.5 145.112 1119.42 146.28 1117.36 147.679C1115.29 149.084 1114.3 150.676 1114.25 152.144C1114.2 153.594 1115.05 155.104 1117.06 156.374C1119.08 157.645 1122.21 158.631 1126.54 159.002L1127 159.041V174.14L1126.38 173.985C1123.49 173.262 1120.72 173.596 1118.54 174.537C1116.35 175.483 1114.79 177.02 1114.22 178.663C1113.67 180.263 1114.03 182.056 1115.86 183.672C1117.72 185.312 1121.11 186.761 1126.57 187.505L1127 187.564V199.459L1126.54 199.498C1122.21 199.869 1119.05 200.856 1116.99 202.143C1114.94 203.428 1114.04 204.973 1114.06 206.491C1114.09 208.026 1115.07 209.71 1117.16 211.254C1119.25 212.792 1122.4 214.145 1126.6 215.01L1127 215.092V228.074L1126.43 227.995C1119.37 227.022 1115.08 230.791 1114.62 234.56C1114.39 236.444 1115.1 238.402 1116.97 239.907C1118.85 241.422 1121.95 242.5 1126.5 242.5H1127V259.957L1126.54 259.998C1109.9 261.489 1098.02 267.446 1090.18 276.086C1082.34 284.73 1078.5 296.109 1078 308.52L1077.98 309H862.206L862.063 308.743C854.679 295.451 836.505 286.995 817.852 286.124Z" fill="white"/>
<path d="M815 25.4508V24.4506C833.359 24.8701 852.533 17.6468 862.573 1.23902L862.72 1H1077.98L1078 1.47461C1079.48 30.689 1100.75 48.0092 1126.52 49.0004L1127 49.0189V61.9189L1126.59 61.9923C1121 62.9854 1117.58 64.5558 1115.73 66.2586C1114.81 67.1048 1114.29 67.9746 1114.06 68.8175C1113.84 69.6584 1113.91 70.5047 1114.22 71.3227C1114.84 72.9732 1116.47 74.5172 1118.69 75.5294C1120.9 76.5369 1123.64 76.9892 1126.41 76.5074L1127 76.4055V91.0447L1126.46 90.9982C1122.16 90.6301 1119 91.4633 1116.93 92.8241C1114.86 94.1835 1113.88 96.0678 1113.88 97.875C1113.88 99.6786 1114.86 101.494 1116.91 102.728C1118.98 103.965 1122.13 104.619 1126.43 104.005L1127 103.923V116.934L1126.57 116.995C1122.25 117.612 1119.16 118.901 1117.18 120.47C1115.2 122.035 1114.35 123.86 1114.44 125.601C1114.52 127.347 1115.55 129.126 1117.58 130.578C1119.61 132.03 1122.61 133.133 1126.55 133.502L1127 133.545V144.43L1126.57 144.494C1122.5 145.112 1119.42 146.28 1117.36 147.679C1115.29 149.084 1114.3 150.676 1114.25 152.144C1114.2 153.594 1115.05 155.104 1117.06 156.374C1119.08 157.645 1122.21 158.631 1126.54 159.002L1127 159.041V174.14L1126.38 173.985C1123.49 173.262 1120.72 173.596 1118.54 174.537C1116.35 175.483 1114.79 177.02 1114.22 178.663C1113.67 180.263 1114.03 182.056 1115.86 183.672C1117.72 185.312 1121.11 186.761 1126.57 187.505L1127 187.564V199.459L1126.54 199.498C1122.21 199.869 1119.05 200.856 1116.99 202.143C1114.94 203.428 1114.04 204.973 1114.06 206.491C1114.09 208.026 1115.07 209.71 1117.16 211.254C1119.25 212.792 1122.4 214.145 1126.6 215.01L1127 215.092V228.074L1126.43 227.995C1119.37 227.022 1115.08 230.791 1114.62 234.56C1114.39 236.444 1115.1 238.402 1116.97 239.907C1118.85 241.422 1121.95 242.5 1126.5 242.5H1127V259.957L1126.54 259.998C1109.9 261.489 1098.02 267.446 1090.18 276.086C1082.34 284.73 1078.5 296.109 1078 308.52L1077.98 309H862.206L862.063 308.743C854.679 295.451 836.505 286.995 817.852 286.124C816.901 286.08 815.95 286.055 815 286.051V285.051V25.4508ZM815 25.4508C833.504 25.867 852.964 18.623 863.279 2H1077.03C1078.74 31.3174 1100.12 48.7805 1126 49.9792V61.0828C1120.57 62.094 1117.06 63.678 1115.05 65.5227C1114.02 66.4733 1113.38 67.5019 1113.1 68.5614C1112.82 69.6228 1112.91 70.6828 1113.28 71.6773C1114.03 73.6518 1115.9 75.3578 1118.28 76.4393C1120.5 77.4544 1123.22 77.9446 1126 77.5817V89.961C1121.81 89.691 1118.59 90.5363 1116.38 91.9884C1114.08 93.504 1112.88 95.6822 1112.88 97.875C1112.88 100.071 1114.08 102.193 1116.4 103.585C1118.61 104.913 1121.83 105.573 1126 105.07V116.069C1121.78 116.726 1118.65 118.03 1116.56 119.686C1114.39 121.402 1113.33 123.515 1113.44 125.649C1113.54 127.778 1114.79 129.811 1117 131.391C1119.12 132.911 1122.15 134.03 1126 134.452V143.573C1122.03 144.221 1118.94 145.397 1116.8 146.852C1114.59 148.354 1113.32 150.199 1113.25 152.106C1113.18 154.031 1114.33 155.833 1116.53 157.22C1118.65 158.557 1121.81 159.548 1126 159.956V172.874C1123.12 172.288 1120.37 172.66 1118.15 173.619C1115.78 174.642 1113.96 176.355 1113.28 178.337C1112.58 180.362 1113.1 182.569 1115.2 184.422C1117.22 186.202 1120.7 187.661 1126 188.434V198.544C1121.81 198.952 1118.62 199.943 1116.46 201.295C1114.22 202.697 1113.03 204.527 1113.06 206.509C1113.1 208.474 1114.34 210.415 1116.57 212.059C1118.74 213.656 1121.9 215.018 1126 215.905V226.935C1118.88 226.183 1114.16 230.074 1113.63 234.44C1113.36 236.681 1114.21 238.973 1116.34 240.686C1118.38 242.329 1121.57 243.42 1126 243.496V259.044C1109.39 260.62 1097.41 266.634 1089.44 275.414C1081.51 284.157 1077.6 295.596 1077.02 308H862.793" stroke="black"/>
<line x1="816.5" y1="23" x2="816.5" y2="285" stroke="black" stroke-width="7" stroke-dasharray="11 11"/>
</svg>
