<svg width="1129" height="311" viewBox="0 0 1129 311" fill="none" xmlns="http://www.w3.org/2000/svg">
<path d="M1127.5 50C1101.5 49 1080 31.5 1078.5 2H864C843.5 35.5 785.5 31 773 2H51C50 27 35.5 48 2 51V67.5C20.5 67.5 16.5 85 2 83V95C19 98.5 19.5 110 2 111.5V122.5C24 125.5 14 140 2 137V151C19.5 152.5 18.5 164 2 166.5V176.5C18 178 19.5 191.5 2 194V206C19.5 203.5 19.5 221.5 2 220V233.5C13.5 231.5 24.5 245 2 249V261C28 262 49.5 279.5 51 309H772C790 275 848.5 282 863.5 309H1078.5C1079.5 284 1094 263 1127.5 260V243.5C1109 243.5 1113 226 1127.5 228V216C1110.5 212.5 1110 201 1127.5 199.5V188.5C1105.5 185.5 1115.5 171 1127.5 174V160C1110 158.5 1111 147 1127.5 144.5V134.5C1111.5 133 1110 119.5 1127.5 117V105C1110 107.5 1110 89.5 1127.5 91V77.5C1116 79.5 1105 66 1127.5 62V50Z" stroke="#FF0000" stroke-width="3"/>
<line x1="817.5" y1="32" x2="817.5" y2="278" stroke="#FF0000" stroke-width="3" stroke-dasharray="10 10"/>
</svg>
